# Blender3D v249 OBJ File: bobby.blend
# www.blender3d.org
v 0.269426 -0.800000 -0.457048
v 0.524018 -0.800000 -0.082996
v 0.472723 -0.800000 0.240865
v 0.240865 -0.800000 0.472723
v -0.375155 -0.800000 0.375155
v -0.524018 -0.800000 0.082996
v -0.472723 -0.800000 -0.240864
v -0.095879 -0.800000 -0.521814
v 0.082997 -0.800000 -0.524017
v 0.269426 0.000000 -0.457048
v 0.524018 0.000000 -0.082996
v 0.472723 0.000000 0.240865
v 0.240864 0.000000 0.472724
v -0.375156 0.000000 0.375154
v -0.524018 0.000000 0.082995
v -0.472723 0.000000 -0.240866
v -0.095878 0.000000 -0.521815
v 0.082998 0.000000 -0.524018
v -0.082996 -0.800000 0.524018
v -0.082997 0.000000 0.524018
v -0.098229 -2.800000 -4.717160
v -0.098228 -0.000000 -4.717160
v 0.250100 -2.800000 -4.717160
v 0.250100 -0.000000 -4.717160
v 0.093863 -0.000000 -4.717160
v 0.093861 -2.800000 -4.717160
v -0.598229 -2.800000 -4.717160
v -0.598229 -0.000000 -4.717160
v -0.598229 -0.000000 -5.017160
v -0.598229 -2.800000 -5.017160
v 0.750100 -0.000000 -4.717160
v 0.750100 -2.800000 -4.717160
v 0.750100 -2.800000 -5.017160
v 0.750100 -0.000000 -5.017160
v 0.414811 1.000000 -5.017160
v 0.414811 1.000000 -4.717160
v -0.259354 1.000000 -5.017160
v -0.259354 1.000000 -4.717160
v 0.164811 1.000000 -5.017160
v 0.086692 1.000000 -5.017160
v -0.009354 1.000000 -5.017160
v 0.086692 1.000000 -4.717160
v 0.164811 1.000000 -4.717160
v -0.009354 1.000000 -4.717160
v 0.414810 -3.800000 -5.017160
v 0.414810 -3.800000 -4.717160
v -0.259354 -3.800000 -5.017160
v -0.259354 -3.800000 -4.717160
v 0.164810 -3.800000 -5.017160
v 0.086691 -3.800000 -5.017160
v -0.009354 -3.800000 -5.017160
v 0.086691 -3.800000 -4.717160
v 0.164810 -3.800000 -4.717160
v -0.009354 -3.800000 -4.717160
vt 0.765238 0.758395
vt 0.761017 0.711558
vt 0.774542 0.726687
vt 0.801990 0.770339
vt 0.835547 0.745958
vt 0.851475 0.760935
vt 0.777954 0.736973
vt 0.819703 0.745958
vt 0.776062 0.747524
vt 0.806885 0.755273
vt 0.875153 0.709739
vt 0.881756 0.721289
vt 0.880926 0.730712
vt 0.913093 0.709739
vt 0.920416 0.739748
vt 0.911879 0.725932
vt 0.875701 0.738591
vt 0.935442 0.745907
vt 0.859944 0.748801
vt 0.957026 0.737184
vt 0.853263 0.746199
vt 0.961721 0.729670
vt 0.752116 0.712360
vt 0.853263 0.770339
vt 0.802282 0.695853
vt 0.809343 0.720948
vt 0.810005 0.738512
vt 0.907390 0.740936
vt 0.899976 0.754253
vt 0.887321 0.770339
vt 0.332332 0.191981
vt 0.325940 0.157729
vt 0.554676 0.100573
vt 0.567009 0.325911
vt 0.000000 0.285481
vt 0.005852 0.249842
vt 0.239992 0.110489
vt 0.242468 0.341675
vt 0.004486 0.311579
vt 0.234196 0.358142
vt 0.000767 0.219580
vt 0.228597 0.096088
vt 0.321775 0.134336
vt 0.544429 0.080976
vt 0.319994 0.218198
vt 0.554408 0.341499
vt 0.602669 0.115145
vt 0.608400 0.315703
vt 0.630643 0.116831
vt 0.632983 0.314802
vt 0.287862 0.123283
vt 0.286640 0.330235
vt 0.317095 0.124628
vt 0.312356 0.329266
vt 0.319994 0.412896
vt 0.294774 0.403883
vt 0.284050 0.418163
vt 0.614950 0.037436
vt 0.637443 0.031372
vt 0.603708 0.024063
vt 0.597082 0.016789
vt 0.277606 0.424295
vt 0.622163 0.000000
vt 0.627416 0.008077
vt 0.307862 0.434752
vt 0.303391 0.441466
vt 0.295653 0.041443
vt 0.319994 0.032952
vt 0.281859 0.027874
vt 0.637443 0.396099
vt 0.614022 0.386799
vt 0.603232 0.400347
vt 0.596318 0.406841
vt 0.274613 0.021552
vt 0.624791 0.416284
vt 0.619402 0.423674
vt 0.301725 0.000000
vt 0.307204 0.007096
vn 0.000000 -1.000000 0.000000
vn 0.000000 1.000000 -0.000000
vn 0.826683 -0.000000 -0.562668
vn 0.987688 -0.000000 0.156435
vn 0.707106 0.000000 0.707107
vn 0.156433 0.000000 0.987688
vn -0.453992 0.000000 0.891006
vn -0.891007 0.000000 0.453989
vn -0.987688 -0.000000 -0.156436
vn -0.597705 -0.000001 -0.801716
vn -1.000000 0.000000 0.000560
vn 0.999990 -0.000000 -0.004536
vn -0.083315 -0.900736 0.426303
vn 0.002557 -0.902627 0.430415
vn 0.000000 0.000000 1.000000
vn -1.000000 0.000000 0.000000
vn 1.000000 -0.000000 0.000000
vn 0.948125 0.317896 -0.000000
vn -0.947097 0.320947 0.000000
vn 0.000001 1.000000 -0.000000
vn 0.948125 -0.317897 0.000000
vn -0.947097 -0.320947 0.000000
vn -0.000001 -1.000000 0.000000
usemtl Material_camera.tga.001
s off
f 19/1/1 1/2/1 2/3/1
f 20/4/2 11/5/2 10/6/2
f 19/1/1 2/3/1 3/7/1
f 20/4/2 12/8/2 11/5/2
f 19/1/1 3/7/1 4/9/1
f 20/4/2 13/10/2 12/8/2
f 19/11/1 5/12/1 6/13/1
f 20/14/2 15/15/2 14/16/2
f 19/11/1 6/13/1 7/17/1
f 20/14/2 16/18/2 15/15/2
f 19/11/1 7/17/1 8/19/1
f 20/14/2 17/20/2 16/18/2
f 19/11/1 8/19/1 9/21/1
f 20/14/2 18/22/2 17/20/2
f 9/23/1 1/2/1 19/1/1
f 20/4/2 10/6/2 18/24/2
f 1/2/3 10/25/3 11/26/3 2/3/3
f 2/3/4 11/26/4 12/27/4 3/7/4
f 3/7/5 12/27/5 13/10/5 4/9/5
f 4/9/6 13/10/6 20/4/6 19/1/6
f 19/11/7 20/14/7 14/16/7 5/12/7
f 5/12/8 14/16/8 15/28/8 6/13/8
f 6/13/9 15/28/9 16/29/9 7/17/9
f 7/17/10 16/29/10 17/30/10 8/19/10
f 8/31/11 17/32/11 22/33/11 21/34/11
f 10/35/12 1/36/12 23/37/12 24/38/12
f 18/39/2 10/35/2 24/38/2 25/40/2
f 1/36/13 9/41/13 26/42/13 23/37/13
f 17/32/2 18/43/2 25/44/2 22/33/2
f 9/45/14 8/31/14 21/34/14 26/46/14
f 22/33/15 28/47/15 27/48/15 21/34/15
f 27/48/16 28/47/16 29/49/16 30/50/16
f 23/37/15 32/51/15 31/52/15 24/38/15
f 31/52/17 32/51/17 33/53/17 34/54/17
f 31/52/18 34/54/18 35/55/18 36/56/18
f 24/38/15 31/52/15 36/56/15 43/57/15
f 29/49/19 28/47/19 38/58/19 37/59/19
f 28/47/15 22/33/15 44/60/15 38/58/15
f 22/33/15 25/44/15 42/61/15 44/60/15
f 25/40/15 24/38/15 43/57/15 42/62/15
f 44/60/2 42/61/2 40/63/2 41/64/2
f 42/62/2 43/57/2 39/65/2 40/66/2
f 41/64/20 37/59/20 38/58/20 44/60/20
f 43/57/2 36/56/2 35/55/2 39/65/2
f 33/53/21 32/51/21 46/67/21 45/68/21
f 32/51/15 23/37/15 53/69/15 46/67/15
f 27/48/22 30/50/22 47/70/22 48/71/22
f 21/34/15 27/48/15 48/71/15 54/72/15
f 26/46/15 21/34/15 54/72/15 52/73/15
f 23/37/15 26/42/15 52/74/15 53/69/15
f 52/73/1 54/72/1 51/75/1 50/76/1
f 53/69/1 52/74/1 50/77/1 49/78/1
f 54/72/23 48/71/23 47/70/23 51/75/23
f 49/78/1 45/68/1 46/67/1 53/69/1
