# Blender3D v249 OBJ File: bobby.blend
# www.blender3d.org
v 0.204120 0.000000 0.240900
v 0.204120 -0.000000 -0.309900
v 0.000000 -0.000000 -0.309900
v -0.204120 -0.000000 -0.309900
v -0.204120 0.000000 0.240900
v 0.000000 0.000000 0.240900
v 0.000000 1.111683 0.160982
v 0.000000 0.767433 0.757240
v -0.255150 1.111683 0.160982
v -0.255150 0.767433 0.757240
v 0.255150 0.767433 0.757240
v 0.255150 1.111683 0.160982
v 0.510300 0.595308 1.055369
v 0.510300 1.283808 -0.137148
v 0.000000 1.283808 -0.137148
v -0.510300 1.283808 -0.137148
v -0.510300 0.595308 1.055369
v 0.000000 0.595308 1.055369
v -0.510300 0.768513 1.155369
v -0.510300 1.457013 -0.037148
v 0.510300 0.768513 1.155370
v 0.510300 1.457013 -0.037148
v 0.000000 0.768513 1.155369
v 0.000000 1.457013 -0.037148
v -0.000000 -0.119942 3.074219
v 0.364500 -0.119942 3.074219
v -0.364500 -0.119942 3.074219
v 0.364500 0.253218 2.447886
v -0.364500 0.253218 2.447886
v -0.000000 0.253218 2.447886
v -0.364500 0.080013 2.347886
v 0.364500 0.080013 2.347886
v -0.000000 0.080013 2.347886
v -0.729000 0.080013 2.347886
v 0.729000 0.080013 2.347887
v 0.729000 0.235898 2.437887
v -0.729000 0.235898 2.437886
v -1.000000 0.045058 2.788430
v 1.000000 0.045058 2.788431
v -1.200000 0.218263 2.888430
v 1.200000 0.218263 2.888431
v -0.000000 2.123519 3.988431
v 1.440000 1.084288 3.388432
v -1.440000 1.084288 3.388430
v 1.340000 0.911083 3.288432
v -1.340001 0.911084 3.288430
v 1.199999 0.911083 3.288432
v -1.200000 0.911084 3.288430
v -1.200000 2.036917 3.938430
v 1.199999 2.036916 3.938433
v -1.440000 1.950314 3.888430
v 1.439999 1.950312 3.888433
v 1.439999 1.777108 3.788433
v -1.440000 1.777109 3.788430
v -0.364500 -0.284487 2.979219
v -0.364500 2.145513 -1.229665
v -0.364500 2.301398 -1.139665
v -0.500000 -0.202869 3.684520
v -0.500000 -0.404942 3.567853
v -0.500000 2.595058 -1.628299
v 0.364500 -0.284487 2.979219
v 0.364500 2.145513 -1.229664
v 0.364500 2.301398 -1.139664
v 0.600000 3.114673 -1.328299
v 0.500000 -0.404942 3.567853
v 0.500000 2.595058 -1.628299
v -0.729000 -0.284487 2.979219
v 0.729000 -0.284487 2.979219
v -0.729000 2.145513 -1.229665
v 0.000000 2.145513 -1.229664
v 0.729000 2.145513 -1.229664
v 0.000000 2.301398 -1.139664
v 0.729000 -0.128602 3.069219
v 0.729000 2.301398 -1.139664
v -0.729000 2.301398 -1.139665
v -0.729000 -0.128602 3.069219
v -1.000000 2.595058 -1.628299
v -1.000000 -0.404942 3.567853
v 1.000000 -0.404942 3.567854
v 1.000000 2.595057 -1.628299
v -1.000000 -0.260604 3.651187
v 1.000000 -0.260605 3.651187
v -1.200000 -0.231737 3.667853
v -1.200000 2.768263 -1.528299
v 1.200000 2.768263 -1.528298
v 1.200000 -0.231737 3.667854
v -0.000001 0.611083 3.808046
v -0.000001 1.217301 4.158046
v -0.000000 0.004865 3.458046
v -0.000000 -0.145134 3.717854
v -0.000001 1.067301 4.417854
v -0.000001 0.827108 5.433879
v -0.000001 1.173518 5.633879
v 0.000000 4.673518 -0.428298
v -0.000001 1.673519 4.767854
v 0.000000 3.461083 -1.128299
v -0.000001 1.327108 4.567854
v 0.000000 4.327108 -0.628298
v -0.000000 -0.404942 3.567853
v 0.000000 2.595058 -1.628299
v -1.440001 0.486965 4.164445
v 1.439999 0.486964 4.164447
v 1.439999 0.634288 4.167854
v -1.440001 0.634288 4.167853
v 1.440001 3.634288 -1.028298
v -1.440000 3.634288 -1.028299
v 1.339999 0.461083 4.067854
v 1.340001 3.461082 -1.128298
v -1.340000 3.461083 -1.128299
v -1.340001 0.461083 4.067853
v 0.839999 0.611083 3.808047
v -0.840001 0.611084 3.808045
v 0.839999 1.217300 4.158047
v -0.840000 1.217301 4.158045
v -0.840000 0.004866 3.458046
v 0.840000 0.004865 3.458046
v -0.840000 1.067302 4.417853
v -0.840001 0.461084 4.067853
v -0.840000 -0.145134 3.717854
v 0.839999 1.067300 4.417855
v 0.839999 0.461083 4.067854
v 0.840000 -0.145135 3.717854
v 1.199999 0.827107 5.433881
v -1.200001 0.827109 5.433878
v -1.200001 0.461083 4.067853
v 1.199999 0.461083 4.067854
v 1.439999 0.827107 5.433881
v -1.440001 0.827109 5.433878
v 1.439999 1.000313 5.533881
v -1.440001 1.000314 5.533878
v -1.200001 1.086916 5.583878
v 1.199999 1.086915 5.583881
v -1.200000 4.586916 -0.478299
v -1.200000 1.586917 4.717853
v 1.199999 1.586915 4.717855
v 1.200001 4.586915 -0.478297
v -1.440000 4.500313 -0.528299
v -1.440000 1.500314 4.667853
v 1.440001 4.500313 -0.528298
v 1.439999 1.500313 4.667855
v 1.440001 4.327107 -0.628297
v 1.439999 1.327108 4.567855
v -1.440000 1.327109 4.567853
v -1.440000 4.327108 -0.628299
v -1.200000 3.461083 -1.128299
v 1.200000 3.461082 -1.128298
v -1.200000 4.327108 -0.628299
v -1.200000 1.327109 4.567853
v 1.199999 1.327108 4.567855
v 1.200001 4.327107 -0.628297
vt 0.683988 0.659877
vt 0.696538 0.660100
vt 0.680920 0.700249
vt 0.634056 0.685317
vt 0.617809 0.644008
vt 0.655310 0.601495
vt 0.695391 0.634659
vt 0.680069 0.642083
vt 0.681726 0.651179
vt 0.625089 0.665846
vt 0.691646 0.696237
vt 0.702342 0.661908
vt 0.669871 0.598776
vt 0.700579 0.629467
vt 0.600781 0.676480
vt 0.588550 0.645299
vt 0.649471 0.577145
vt 0.672579 0.581766
vt 0.697731 0.702915
vt 0.688710 0.713937
vt 0.613486 0.705921
vt 0.690890 0.723632
vt 0.605842 0.717128
vt 0.571047 0.643095
vt 0.642369 0.560326
vt 0.586830 0.682700
vt 0.703641 0.707363
vt 0.675862 0.572430
vt 0.511189 0.713224
vt 0.504335 0.701736
vt 0.743521 0.486560
vt 0.717171 0.471356
vt 0.497164 0.691118
vt 0.692397 0.465574
vt 0.745960 0.719990
vt 0.740679 0.731239
vt 0.512679 0.725395
vt 0.734931 0.739531
vt 0.515797 0.737515
vt 0.487480 0.722132
vt 0.505449 0.715226
vt 0.507191 0.722851
vt 0.492743 0.732864
vt 0.483413 0.710683
vt 0.500930 0.708241
vt 0.497275 0.734673
vt 0.485840 0.706057
vt 0.484379 0.701118
vt 0.498876 0.739997
vt 0.461900 0.652779
vt 0.684202 0.441466
vt 0.478303 0.699998
vt 0.494014 0.687239
vt 0.516371 0.743656
vt 0.494580 0.744223
vt 0.737465 0.745868
vt 0.517190 0.766396
vt 0.507949 0.752427
vt 0.482657 0.754671
vt 0.496486 0.744476
vt 0.520217 0.742538
vt 0.279321 0.828625
vt 0.028556 0.738556
vt 0.073155 0.723657
vt 0.246144 0.785323
vt 0.427908 0.893424
vt 0.734909 0.882011
vt 0.682758 0.917142
vt 0.471702 0.925149
vt 0.460373 0.702501
vt 0.479012 0.685021
vt 0.495042 0.682335
vt 0.477290 0.699307
vt 0.455021 0.698299
vt 0.471780 0.678463
vt 0.428482 0.846554
vt 0.733496 0.850887
vt 0.272371 0.851813
vt 0.014115 0.776958
vt 0.508253 0.762034
vt 0.483059 0.761200
vt 0.714279 0.004648
vt 0.725112 0.053818
vt 0.661185 0.088623
vt 0.637443 0.032288
vt 0.267451 0.570997
vt 0.014149 0.526513
vt 0.028346 0.441466
vt 0.388547 0.501596
vt 0.824854 0.695853
vt 0.785281 0.646716
vt 0.846702 0.606452
vt 0.890598 0.642906
vt 0.905776 0.386562
vt 0.644943 0.423674
vt 0.639536 0.367881
vt 0.839241 0.336435
vt 0.639997 0.242760
vt 0.836308 0.249856
vt 0.837910 0.273153
vt 0.637443 0.272125
vt 0.875797 0.538678
vt 0.931441 0.550110
vt 0.928338 0.564542
vt 0.873768 0.553393
vt 0.000603 0.648166
vt 0.247892 0.661996
vt 0.251180 0.687217
vt 0.000000 0.689309
vt 0.784283 0.055608
vt 0.795815 0.000000
vt 0.810291 0.002889
vt 0.797575 0.059363
vt 0.252255 0.592570
vt 0.007256 0.568639
vt 0.729557 0.001728
vt 0.737182 0.050835
vt 0.856650 0.595943
vt 0.901450 0.628588
vt 0.637759 0.339089
vt 0.831037 0.320737
vt 0.741299 0.000000
vt 0.747019 0.049253
vt 0.254822 0.611954
vt 0.003140 0.604114
vt 0.637443 0.306098
vt 0.834433 0.308849
vt 0.863253 0.587691
vt 0.908951 0.617570
vt 0.875093 0.530551
vt 0.933138 0.540985
vt 0.644207 0.210859
vt 0.854656 0.231367
vt 0.262713 0.709864
vt 0.000000 0.723657
vt 0.819473 0.004953
vt 0.805935 0.063564
vt 0.433258 0.690957
vt 0.448030 0.663370
vt 0.428482 0.790799
vt 0.783920 0.790799
vt 0.291992 0.912743
vt 0.000000 0.822761
vt 0.502032 0.790799
vt 0.470833 0.780520
vt 0.723773 0.455157
vt 0.752116 0.472563
vt 0.752455 0.923648
vt 0.776730 0.974048
vt 0.713110 1.000000
vt 0.696517 0.959323
vt 0.465005 0.715479
vt 0.470923 0.729270
vt 0.458451 0.718197
vt 0.462036 0.733087
vt 0.452973 0.708670
vt 0.456187 0.703233
vt 0.877251 0.911486
vt 0.746494 0.734903
vt 0.752116 0.722628
vt 0.306503 0.801416
vt 0.271219 0.753333
vt 0.345799 0.767708
vt 0.299385 0.723657
vt 0.477430 0.742965
vt 0.332016 0.853211
vt 0.404655 0.860631
vt 0.429969 0.703029
vt 0.479766 0.757351
vt 0.461101 0.773997
vt 0.473809 0.756867
vt 0.527318 0.415331
vt 0.469603 0.415331
vt 0.469603 0.367235
vt 0.527318 0.367235
vt 0.469603 0.418002
vt 0.408682 0.418002
vt 0.408681 0.367235
vt 0.466397 0.466099
vt 0.408681 0.466099
vt 0.408681 0.418003
vt 0.466397 0.418002
vt 0.524113 0.466099
vt 0.524113 0.418002
vt 0.806349 0.160758
vt 0.798407 0.109793
vt 0.815013 0.113804
vt 0.822714 0.158345
vt 0.835188 0.510142
vt 0.799159 0.477126
vt 0.814396 0.462930
vt 0.841031 0.496002
vt 0.464771 0.755883
vt 0.452856 0.738428
vt 0.455259 0.735926
vt 0.446687 0.715856
vt 0.789882 0.163879
vt 0.780538 0.102967
vt 0.830261 0.528879
vt 0.788618 0.487739
vt 0.752116 0.551557
vt 0.822891 0.556547
vt 0.819775 0.571377
vt 0.752116 0.581178
vt 0.752433 0.096917
vt 0.727728 0.152575
vt 0.705414 0.140964
vt 0.738784 0.092078
vt 0.413267 0.554633
vt 0.279898 0.604265
vt 0.849260 0.315473
vt 0.926123 0.359139
vt 0.427908 0.692296
vt 0.966670 0.270516
vt 0.790440 0.062205
vt 0.751646 0.086127
vt 0.870565 0.545724
vt 0.454906 0.769828
vt 0.875621 0.512486
vt 0.875494 0.492196
vt 0.427908 0.713822
vt 0.822516 0.075178
vt 0.836649 0.084323
vt 0.832014 0.563372
vt 0.828541 0.568606
vt 0.745847 0.086361
vn 0.998803 -0.046859 -0.014063
vn -0.998803 -0.046859 -0.014063
vn -0.000000 -0.558227 0.829688
vn 0.000000 0.390030 -0.920802
vn 0.000000 -0.866025 -0.500000
vn 0.000000 -0.866026 -0.500000
vn 0.000001 -0.866025 -0.500000
vn 1.000000 0.000000 0.000000
vn -1.000000 0.000000 -0.000000
vn -0.000000 -0.500000 0.866025
vn 0.000000 0.500000 -0.866025
vn -0.000000 -0.859086 -0.511831
vn 0.000000 -0.499999 0.866026
vn 0.036875 -0.865436 -0.499660
vn -0.036875 -0.865436 -0.499660
vn -0.036876 -0.865436 -0.499660
vn -0.707106 -0.612373 -0.353554
vn -0.707107 -0.612373 -0.353554
vn 0.707107 -0.612372 -0.353553
vn -0.083045 0.863034 0.498273
vn 0.083045 0.863034 0.498273
vn 0.894427 -0.387298 -0.223607
vn 0.894427 -0.387299 -0.223607
vn -0.894427 -0.387299 -0.223607
vn -0.894427 -0.387298 -0.223607
vn -0.384616 0.799408 0.461538
vn -0.384617 0.799407 0.461538
vn 0.384617 0.799407 0.461538
vn 0.384616 0.799408 0.461538
vn -0.000000 -0.500000 0.866026
vn 0.000001 0.500000 -0.866025
vn 0.000000 -0.857122 -0.515114
vn 0.011566 -0.872343 -0.488758
vn 0.000000 0.500001 -0.866025
vn -0.000000 -0.500002 0.866024
vn -0.000001 -0.500000 0.866026
vn -0.011566 -0.872343 -0.488758
vn -0.000001 -0.500002 0.866024
vn -0.000004 -0.500003 0.866023
vn -0.000001 -0.500000 0.866025
vn -0.000001 -0.500001 0.866025
vn 0.000000 0.866026 0.500000
vn -0.000002 -0.500001 0.866025
vn -0.000001 -0.499999 0.866026
vn 0.000001 0.500001 -0.866025
vn 0.000000 -0.965926 0.258819
vn -0.692412 0.016683 -0.721309
vn 0.692412 0.016683 -0.721309
vn -1.000000 -0.000001 -0.000000
vn -0.000002 -0.499999 0.866026
vn 0.384616 0.799408 0.461539
vn -0.384616 0.799408 0.461539
vn -0.000000 0.499999 -0.866026
vn -0.000001 0.500001 -0.866025
usemtl Material_camera.tga.001
s off
f 1/1/1 2/2/1 12/3/1 11/4/1
f 10/5/2 9/6/2 4/7/2 5/8/2
f 6/9/3 1/1/3 11/4/3 8/10/3
f 7/11/4 12/3/4 2/2/4 3/12/4
f 9/6/4 7/13/4 3/14/4 4/7/4
f 8/10/3 10/5/3 5/8/3 6/9/3
f 18/15/5 17/16/5 10/5/5 8/10/5
f 16/17/6 15/18/6 7/13/6 9/6/6
f 15/19/6 14/20/6 12/3/6 7/11/6
f 13/21/5 18/15/5 8/10/5 11/4/5
f 17/16/7 16/17/7 9/6/7 10/5/7
f 14/20/5 13/21/5 11/4/5 12/3/5
f 22/22/8 21/23/8 13/21/8 14/20/8
f 19/24/9 20/25/9 16/17/9 17/16/9
f 21/23/10 23/26/10 18/15/10 13/21/10
f 24/27/11 22/22/11 14/20/11 15/19/11
f 20/25/11 24/28/11 15/18/11 16/17/11
f 23/26/10 19/24/10 17/16/10 18/15/10
f 23/26/5 33/29/5 31/30/5 19/24/5
f 70/31/5 24/28/5 20/25/5 56/32/5
f 19/24/5 31/30/5 34/33/5
f 56/32/5 20/25/5 69/34/5
f 20/25/5 19/24/5 34/33/5 69/34/5
f 24/27/5 70/35/5 62/36/5 22/22/5
f 33/29/5 23/26/5 21/23/5 32/37/5
f 22/22/5 62/36/5 71/38/5
f 32/37/5 21/23/5 35/39/5
f 21/23/5 22/22/5 71/38/5 35/39/5
f 25/40/12 30/41/12 28/42/12 26/43/12
f 30/41/12 25/40/12 27/44/12 29/45/12
f 32/37/9 61/46/9 26/43/9 28/42/9
f 55/47/8 31/30/8 29/45/8 27/44/8
f 33/29/10 32/37/10 28/42/10 30/41/10
f 31/30/13 33/29/13 30/41/13 29/45/13
f 31/30/5 55/47/5 67/48/5 34/33/5
f 61/46/5 32/37/5 35/39/5 68/49/5
f 37/50/9 75/51/9 69/34/9 34/33/9
f 76/52/9 37/53/9 34/33/9 67/48/9
f 36/54/8 73/55/8 68/49/8 35/39/8
f 74/56/8 36/57/8 35/39/8 71/38/8
f 39/58/14 79/59/14 73/60/14 36/61/14
f 80/62/14 39/63/14 36/64/14 74/65/14
f 38/66/15 77/67/15 75/68/15 37/69/15
f 78/70/16 38/71/16 37/72/16 76/73/16
f 38/71/17 78/70/17 83/74/17 40/75/17
f 77/67/18 38/66/18 40/76/18 84/77/18
f 39/63/19 80/62/19 85/78/19 41/79/19
f 79/59/19 39/58/19 41/80/19 86/81/19
f 49/82/20 134/83/20 95/84/20 42/85/20
f 133/86/20 49/87/20 42/88/20 94/89/20
f 42/90/21 95/91/21 135/92/21 50/93/21
f 94/94/21 42/95/21 50/96/21 136/97/21
f 45/98/22 108/99/22 105/100/22 43/101/22
f 107/102/23 45/103/23 43/104/23 103/105/23
f 44/106/24 106/107/24 109/108/24 46/109/24
f 104/110/25 44/111/25 46/112/25 110/113/25
f 49/87/26 133/86/26 137/114/26 51/115/26
f 134/83/27 49/82/27 51/116/27 138/117/27
f 50/93/28 135/92/28 140/118/28 52/119/28
f 136/97/29 50/96/29 52/120/29 139/121/29
f 54/122/9 143/123/9 138/117/9 51/116/9
f 144/124/9 54/125/9 51/115/9 137/114/9
f 53/126/8 141/127/8 139/121/8 52/120/8
f 142/128/8 53/129/8 52/119/8 140/118/8
f 43/101/8 105/100/8 141/127/8 53/126/8
f 103/105/8 43/104/8 53/129/8 142/128/8
f 44/111/9 104/110/9 143/123/9 54/122/9
f 106/107/9 44/106/9 54/125/9 144/124/9
f 45/103/5 107/102/5 126/130/5 47/131/5
f 108/99/6 45/98/6 47/132/6 146/133/6
f 46/109/5 109/108/5 145/134/5 48/135/5
f 110/113/5 46/112/5 48/136/5 125/137/5
f 40/75/9 83/74/9 125/138/9 48/139/9
f 84/77/9 40/76/9 48/140/9 145/141/9
f 41/79/8 85/78/8 146/142/8 47/143/8
f 86/81/8 41/80/8 47/144/8 126/145/8
f 27/44/30 76/52/30 67/48/30 55/47/30
f 57/146/31 72/147/31 70/31/31 56/32/31
f 75/51/11 57/146/11 56/32/11 69/34/11
f 60/148/32 100/149/32 72/150/32 57/151/32
f 77/67/32 60/148/32 57/151/32 75/68/32
f 59/152/33 78/70/33 76/73/33 27/44/33
f 99/153/5 59/152/5 27/44/5 25/40/5
f 58/154/10 90/155/10 119/156/10
f 81/157/10 58/154/10 119/156/10
f 60/148/34 77/67/34 96/158/34
f 100/149/31 60/148/31 96/158/31
f 58/154/35 81/157/35 78/70/35 59/152/35
f 90/155/10 58/154/10 59/152/10 99/153/10
f 73/55/36 26/43/36 61/46/36 68/49/36
f 63/159/11 74/56/11 71/38/11 62/36/11
f 72/160/11 63/159/11 62/36/11 70/35/11
f 66/161/32 80/62/32 74/65/32 63/162/32
f 100/163/32 66/161/32 63/162/32 72/164/32
f 65/165/5 99/153/5 25/40/5 26/43/5
f 79/59/37 65/165/37 26/43/37 73/60/37
f 65/165/38 79/59/38 90/155/38
f 99/153/10 65/165/10 90/155/10
f 64/166/31 96/167/31 146/142/31
f 85/78/11 64/166/11 146/142/11
f 64/166/34 85/78/34 80/62/34 66/161/34
f 96/167/11 64/166/11 66/161/11 100/163/11
f 83/74/10 118/168/10 125/138/10
f 82/169/10 121/170/10 122/171/10
f 83/74/39 78/70/39 81/157/39
f 79/59/13 86/81/13 82/169/13
f 88/172/40 114/173/40 112/174/40 87/175/40
f 113/176/40 88/177/40 87/178/40 111/174/40
f 87/179/36 112/180/36 115/181/36 89/182/36
f 111/183/41 87/179/41 89/182/41 116/184/41
f 91/185/6 117/186/6 114/187/6 88/188/6
f 120/189/6 91/190/6 88/191/6 113/192/6
f 90/155/42 122/171/42 116/193/42 89/194/42
f 119/156/42 90/155/42 89/195/42 115/196/42
f 90/155/30 79/59/30 82/169/30 122/171/30
f 97/197/43 148/198/43 117/186/43 91/185/43
f 149/199/40 97/200/40 91/190/40 120/189/40
f 92/201/40 123/202/40 132/203/40 93/204/40
f 124/205/44 92/206/44 93/207/44 131/208/44
f 97/200/5 149/199/5 123/202/5 92/201/5
f 148/198/5 97/197/5 92/206/5 124/205/5
f 95/84/20 134/83/20 131/208/20 93/207/20
f 135/92/21 95/91/21 93/204/21 132/203/21
f 98/209/11 147/210/11 133/86/11 94/89/11
f 150/211/31 98/212/31 94/94/31 136/97/31
f 96/158/11 77/67/11 84/77/11 145/141/11
f 96/213/11 145/134/11 147/210/11 98/209/11
f 98/212/45 150/211/45 146/133/45 96/214/45
f 101/215/46 124/205/46 128/216/46
f 107/102/46 123/202/46 126/130/46
f 105/100/34 150/211/34 141/127/34
f 109/108/11 147/210/11 145/134/11
f 104/110/47 110/113/47 101/215/47
f 107/102/48 103/105/48 102/217/48
f 122/171/49 121/170/49 111/218/49 116/193/49
f 121/219/9 120/189/9 113/192/9 111/220/9
f 118/168/8 119/156/8 115/196/8 112/221/8
f 117/186/8 118/222/8 112/223/8 114/187/8
f 148/198/10 125/137/10 118/222/10 117/186/10
f 118/168/50 83/74/50 81/157/50 119/156/50
f 126/130/41 149/199/41 120/189/41 121/219/41
f 121/170/41 82/169/41 86/81/41 126/145/41
f 124/205/46 101/215/46 110/113/46 125/137/46
f 123/202/46 107/102/46 102/217/46 127/224/46
f 123/202/10 127/224/10 129/225/10 132/203/10
f 128/216/13 124/205/13 131/208/13 130/226/13
f 149/199/9 126/130/9 123/202/9
f 125/137/8 148/198/8 124/205/8
f 104/110/9 101/215/9 128/216/9 143/123/9
f 102/217/8 103/105/8 142/128/8 127/224/8
f 142/128/8 140/118/8 129/225/8 127/224/8
f 138/117/9 143/123/9 128/216/9 130/226/9
f 140/118/51 135/92/51 132/203/51 129/225/51
f 134/83/52 138/117/52 130/226/52 131/208/52
f 147/210/11 144/124/11 137/114/11 133/86/11
f 141/127/53 150/211/53 136/97/53 139/121/53
f 150/211/54 105/100/54 108/99/54 146/133/54
f 147/210/31 109/108/31 106/107/31 144/124/31
