# Blender3D v249 OBJ File: liftajto.blend
# www.blender3d.org
v 1.000000 4.000000 0.000000
v 1.000000 0.000000 0.000000
v -1.000000 0.000000 0.000000
v -1.000000 4.000000 0.000000
v 0.833333 0.000000 0.000000
v -0.833333 0.000000 0.000000
v 0.833333 4.000000 0.000000
v -0.833333 4.000000 0.000000
v 1.000000 3.700000 0.000000
v -1.000000 3.700001 0.000000
v 0.833333 3.700000 0.000000
v -0.833333 3.700001 0.000000
v -0.833333 3.700001 0.100000
v 0.833333 3.700000 0.100000
v -0.833333 0.000000 0.100000
v 0.833333 0.000000 0.100000
v -1.000000 4.000000 0.100000
v -1.000000 3.700001 0.100000
v -1.000000 0.000000 0.100000
v 1.000000 0.000000 0.100000
v 1.000000 3.700000 0.100000
v 1.000000 4.000000 0.100000
v -0.833333 4.000000 0.100000
v 0.833333 4.000000 0.100000
v -0.000000 0.000000 0.000000
v 0.000000 4.000000 0.000000
v 0.000000 3.700000 0.000000
v 0.000000 3.700000 0.100000
v 0.000000 4.000000 0.100000
v -0.000000 0.000000 -0.100000
v 0.000000 3.700000 -0.100000
v -0.833333 3.700001 -0.100000
v -0.833333 0.000000 -0.100000
vt 0.752983 0.447739
vt 0.752983 0.729124
vt 0.728630 0.729124
vt 0.728630 0.447739
vt 0.752983 0.424924
vt 0.752983 0.143540
vt 0.728630 0.143540
vt 0.728630 0.424924
vt 0.752983 0.729123
vt 0.728630 0.729123
vt 0.752983 0.384364
vt 0.752983 0.371689
vt 0.728630 0.371689
vt 0.728630 0.384364
vt 0.752983 0.359014
vt 0.728630 0.359014
vt 0.752983 0.523789
vt 0.752983 0.536464
vt 0.728630 0.536464
vt 0.728630 0.523789
vt 0.752983 0.511114
vt 0.728630 0.511114
vt 0.110028 0.743113
vt 0.110028 0.192162
vt 0.172715 0.192162
vt 0.172715 0.743113
vt 0.110028 0.810764
vt 0.172715 0.810764
vt 0.721097 0.743113
vt 0.721097 0.192162
vt 0.788401 0.192162
vt 0.788401 0.743113
vt 0.721097 0.810764
vt 0.788401 0.810764
vt 0.453683 0.192162
vt 0.453684 0.743113
vt 0.446906 0.743113
vt 0.446906 0.810764
vt 0.777336 0.729124
vt 0.777336 0.447739
vt 0.777336 0.384364
vt 0.777336 0.143540
vt 0.777336 0.424924
vt 0.446906 0.192162
vn 1.000000 -0.000000 0.000000
vn -1.000000 0.000000 0.000000
vn 0.000000 1.000000 0.000000
vn -0.000000 -1.000000 0.000000
vn 0.000000 0.000000 1.000000
vn 0.000001 1.000000 0.000000
usemtl None_liftajto.jpg
s off
f 6/1/1 12/2/1 13/3/1 15/4/1
f 11/5/2 5/6/2 16/7/2 14/8/2
f 4/1/2 10/5/2 18/8/2 17/4/2
f 10/5/2 3/6/2 19/7/2 18/8/2
f 2/1/1 9/9/1 21/10/1 20/4/1
f 9/5/1 1/1/1 22/4/1 21/8/1
f 8/11/3 4/12/3 17/13/3 23/14/3
f 1/12/3 7/15/3 24/16/3 22/13/3
f 3/17/4 6/18/4 15/19/4 19/20/4
f 5/21/4 2/17/4 20/20/4 16/22/4
f 18/23/5 19/24/5 15/25/5 13/26/5
f 17/27/5 18/23/5 13/26/5 23/28/5
f 14/29/5 16/30/5 20/31/5 21/32/5
f 24/33/5 14/29/5 21/32/5 22/34/5
f 25/35/5 5/30/5 11/29/5 27/36/5
f 12/11/4 27/1/4 28/4/4 13/14/4
f 27/1/4 11/21/4 14/22/4 28/4/4
f 7/21/3 26/1/3 29/4/3 24/22/3
f 26/1/6 8/11/6 23/14/6 29/4/6
f 13/26/5 28/37/5 29/38/5 23/28/5
f 28/37/5 14/29/5 24/33/5 29/38/5
f 25/1/2 27/2/2 31/39/2 30/40/2
f 27/1/4 12/11/4 32/41/4 31/40/4
f 6/11/3 25/1/3 30/40/3 33/41/3
f 12/5/1 6/6/1 33/42/1 32/43/1
f 33/25/5 30/44/5 31/37/5 32/26/5
